<svg xmlns="http://www.w3.org/2000/svg" viewBox="0 0 158.22 158.22"><defs><style>.cls-1{fill:#005aab;}</style></defs><title>Asset 14</title><g id="Layer_2" data-name="Layer 2"><g id="Layer_1-2" data-name="Layer 1"><rect class="cls-1" x="46.28" y="95.17" width="49.24" height="5.47"/><rect class="cls-1" x="46.28" y="83.04" width="49.24" height="5.47"/><rect class="cls-1" x="46.28" y="70.9" width="49.24" height="5.47"/><rect class="cls-1" x="46.28" y="108" width="49.24" height="5.47"/><path class="cls-1" d="M79.11,0a79.11,79.11,0,1,0,79.11,79.11A79.11,79.11,0,0,0,79.11,0Zm27.24,111.78v9.61A9.61,9.61,0,0,1,96.74,131H45.07a9.61,9.61,0,0,1-9.61-9.61V50.5a9.61,9.61,0,0,1,9.61-9.61H96.73a9.61,9.61,0,0,1,9.61,9.61v61.28Zm12.31-12.31v9.61a9.62,9.62,0,0,1-6.84,9.2V50.5A15.1,15.1,0,0,0,96.74,35.42H48.18a9.62,9.62,0,0,1,9.2-6.84H109a9.61,9.61,0,0,1,9.61,9.61Z"/><rect class="cls-1" x="46.28" y="58.76" width="49.24" height="5.47"/></g></g></svg>