<svg xmlns="http://www.w3.org/2000/svg" viewBox="0 0 158.21 158.21"><defs><style>.cls-1{fill:#3e7c28;}</style></defs><title>Asset 13</title><g id="Layer_2" data-name="Layer 2"><g id="Layer_1-2" data-name="Layer 1"><path class="cls-1" d="M78.84,57.26a25.08,25.08,0,1,0,25.08,25.08A25.08,25.08,0,0,0,78.84,57.26Zm0,40.12a15,15,0,1,1,15-15A15,15,0,0,1,78.84,97.39Z"/><circle class="cls-1" cx="115.45" cy="65.78" r="3.51"/><path class="cls-1" d="M79.11,0a79.11,79.11,0,1,0,79.11,79.11A79.11,79.11,0,0,0,79.11,0ZM129,107.42a10.06,10.06,0,0,1-10,10H38.72a10.06,10.06,0,0,1-10-10V62.28a10.06,10.06,0,0,1,10-10h12a4.46,4.46,0,0,0,4-2.86l3.11-9.34a4.46,4.46,0,0,1,4-2.86H95.89a4.46,4.46,0,0,1,4,2.86L103,49.39a4.45,4.45,0,0,0,4,2.86h12a10.06,10.06,0,0,1,10,10Z"/></g></g></svg>