<svg xmlns="http://www.w3.org/2000/svg" viewBox="0 0 171.04 171.04"><defs><style>.cls-1{fill:#00a65e;}</style></defs><title>Asset 11</title><g id="Layer_2" data-name="Layer 2"><g id="Layer_1-2" data-name="Layer 1"><path class="cls-1" d="M85.52,0A85.52,85.52,0,1,0,171,85.52,85.52,85.52,0,0,0,85.52,0ZM63.27,46.45,81.35,28.38a6,6,0,0,1,4.28-1.77h.09A6,6,0,0,1,90,28.38l18.08,18.08A6.06,6.06,0,0,1,99.51,55l-8-8V79.47a6.05,6.05,0,1,1-12.11,0v-32L71.83,55a6.06,6.06,0,0,1-8.57-8.56ZM132,119.34h0c0,8.17-8,14.57-18.25,14.57H57.26C47,133.91,39,127.51,39,119.34V80c0-8.17,8-14.58,18.25-14.58h7.63a14.41,14.41,0,0,0,5.29,0h.35V77.25H57.26c-4.14,0-6.42,2.07-6.42,2.75v39.34c0,.68,2.28,2.74,6.42,2.74h56.52c4.14,0,6.42-2.07,6.42-2.74V80c0-.68-2.27-2.75-6.42-2.75H100.39V65.42h.82a14.1,14.1,0,0,0,5.24,0h7.33C124,65.42,132,71.82,132,80Z"/></g></g></svg>